<svg width="16" height="16" viewBox="0 0 16 16" fill="none" xmlns="http://www.w3.org/2000/svg">
<path d="M14.8571 0H8C7.69699 0.000302558 7.40647 0.120808 7.19221 0.335069C6.97795 0.549331 6.85745 0.839845 6.85714 1.14286V6.85714H1.14286C0.839845 6.85745 0.549331 6.97795 0.335069 7.19221C0.120808 7.40647 0.000302558 7.69699 0 8V16H16V1.14286C15.9997 0.839845 15.8792 0.549331 15.6649 0.335069C15.4507 0.120808 15.1602 0.000302558 14.8571 0ZM4 14.8571V10.8571H6.28571V14.8571H4ZM14.8571 14.8571H7.42857V10.2857C7.42857 10.1342 7.36837 9.98882 7.2612 9.88165C7.15404 9.77449 7.0087 9.71429 6.85714 9.71429H3.42857C3.27702 9.71429 3.13167 9.77449 3.02451 9.88165C2.91735 9.98882 2.85714 10.1342 2.85714 10.2857V14.8571H1.14286V8H8V1.14286H14.8571V14.8571Z" fill="white"/>
</svg>
