<svg width="27" height="27" viewBox="0 0 27 27" fill="none" xmlns="http://www.w3.org/2000/svg">
<path d="M23.7741 20.6444C23.089 20.0335 22.4891 19.3333 21.9907 18.5625C21.4466 17.4985 21.1205 16.3366 21.0315 15.1449V11.6349C21.0362 9.76308 20.3572 7.95398 19.1221 6.54749C17.8871 5.14101 16.1809 4.23394 14.3241 3.99672V3.08014C14.3241 2.82857 14.2242 2.5873 14.0463 2.40942C13.8684 2.23153 13.6272 2.13159 13.3756 2.13159C13.124 2.13159 12.8828 2.23153 12.7049 2.40942C12.527 2.5873 12.427 2.82857 12.427 3.08014V4.01093C10.587 4.26525 8.90139 5.1778 7.68252 6.57956C6.46365 7.98133 5.79409 9.77731 5.79783 11.6349V15.1449C5.70884 16.3366 5.38273 17.4985 4.83862 18.5625C4.34898 19.3316 3.75876 20.0317 3.08362 20.6444C3.00783 20.7109 2.94709 20.7929 2.90543 20.8848C2.86378 20.9767 2.84217 21.0764 2.84204 21.1773V22.1436C2.84204 22.332 2.9169 22.5127 3.05015 22.646C3.1834 22.7792 3.36412 22.8541 3.55257 22.8541H23.3052C23.4936 22.8541 23.6744 22.7792 23.8076 22.646C23.9409 22.5127 24.0157 22.332 24.0157 22.1436V21.1773C24.0156 21.0764 23.994 20.9767 23.9523 20.8848C23.9107 20.7929 23.8499 20.7109 23.7741 20.6444ZM4.31994 21.433C4.98102 20.7944 5.56307 20.0788 6.05362 19.3015C6.739 18.0165 7.1389 16.5986 7.22599 15.1449V11.6349C7.19781 10.8022 7.33749 9.9723 7.6367 9.1947C7.93592 8.41709 8.38856 7.70765 8.96766 7.10862C9.54677 6.50958 10.2405 6.03321 11.0075 5.70787C11.7746 5.38252 12.5992 5.21486 13.4324 5.21486C14.2656 5.21486 15.0903 5.38252 15.8573 5.70787C16.6244 6.03321 17.3181 6.50958 17.8972 7.10862C18.4763 7.70765 18.9289 8.41709 19.2282 9.1947C19.5274 9.9723 19.6671 10.8022 19.6389 11.6349V15.1449C19.726 16.5986 20.1259 18.0165 20.8113 19.3015C21.3018 20.0788 21.8839 20.7944 22.5449 21.433H4.31994Z" fill="white"/>
<path d="M13.4645 25.2273C13.9121 25.217 14.3416 25.0487 14.6771 24.7523C15.0126 24.4558 15.2324 24.0502 15.2977 23.6073H11.5603C11.6274 24.0623 11.8575 24.4773 12.2078 24.7753C12.5581 25.0733 13.0047 25.2339 13.4645 25.2273V25.2273Z" fill="white"/>
<circle cx="19.5" cy="6.5" r="4.5" fill="#EB5757"/>
</svg>
