<svg width="25" height="25" viewBox="0 0 25 25" fill="none" xmlns="http://www.w3.org/2000/svg">
<path d="M14.0305 3.15718C13.752 2.89387 13.3833 2.74716 13 2.74716C12.6167 2.74716 12.248 2.89387 11.9695 3.15718L4.7035 10.0242C4.48102 10.2347 4.30387 10.4884 4.1829 10.7698C4.06194 11.0512 3.9997 11.3544 4 11.6607V20.0157C4.0004 20.6122 4.23763 21.1841 4.65954 21.6057C5.08145 22.0273 5.65352 22.2642 6.25 22.2642H8.5C9.09674 22.2642 9.66903 22.0271 10.091 21.6052C10.5129 21.1832 10.75 20.6109 10.75 20.0142V16.2642C10.75 16.0653 10.829 15.8745 10.9697 15.7338C11.1103 15.5932 11.3011 15.5142 11.5 15.5142H14.5C14.6989 15.5142 14.8897 15.5932 15.0303 15.7338C15.171 15.8745 15.25 16.0653 15.25 16.2642V20.0142C15.25 20.6109 15.4871 21.1832 15.909 21.6052C16.331 22.0271 16.9033 22.2642 17.5 22.2642H19.75C20.3467 22.2642 20.919 22.0271 21.341 21.6052C21.7629 21.1832 22 20.6109 22 20.0142V11.6592C21.9999 11.353 21.9373 11.0501 21.8161 10.769C21.6949 10.4878 21.5176 10.2344 21.295 10.0242L14.0305 3.15418V3.15718Z" fill="white"/>
</svg>
