<svg width="25" height="25" viewBox="0 0 25 25" fill="none" xmlns="http://www.w3.org/2000/svg">
<path d="M21.2857 11.7143C21.4752 11.7143 21.6568 11.639 21.7908 11.5051C21.9247 11.3711 22 11.1894 22 11V7.42857C22 7.04969 21.8495 6.68633 21.5816 6.41842C21.3137 6.15051 20.9503 6 20.5714 6H3.42857C3.04969 6 2.68633 6.15051 2.41842 6.41842C2.15051 6.68633 2 7.04969 2 7.42857V11C2 11.1894 2.07525 11.3711 2.20921 11.5051C2.34316 11.639 2.52485 11.7143 2.71429 11.7143C3.09317 11.7143 3.45653 11.8648 3.72444 12.1327C3.99235 12.4006 4.14286 12.764 4.14286 13.1429C4.14286 13.5217 3.99235 13.8851 3.72444 14.153C3.45653 14.4209 3.09317 14.5714 2.71429 14.5714C2.52485 14.5714 2.34316 14.6467 2.20921 14.7806C2.07525 14.9146 2 15.0963 2 15.2857V18.8571C2 19.236 2.15051 19.5994 2.41842 19.8673C2.68633 20.1352 3.04969 20.2857 3.42857 20.2857H20.5714C20.9503 20.2857 21.3137 20.1352 21.5816 19.8673C21.8495 19.5994 22 19.236 22 18.8571V15.2857C22 15.0963 21.9247 14.9146 21.7908 14.7806C21.6568 14.6467 21.4752 14.5714 21.2857 14.5714C20.9068 14.5714 20.5435 14.4209 20.2756 14.153C20.0077 13.8851 19.8571 13.5217 19.8571 13.1429C19.8571 12.764 20.0077 12.4006 20.2756 12.1327C20.5435 11.8648 20.9068 11.7143 21.2857 11.7143V11.7143ZM20.5714 15.9071V18.8571H15.5714V16.7143H14.1429V18.8571H3.42857V15.9071C4.04 15.7473 4.58119 15.3893 4.96745 14.8891C5.3537 14.389 5.56323 13.7748 5.56323 13.1429C5.56323 12.5109 5.3537 11.8968 4.96745 11.3966C4.58119 10.8964 4.04 10.5384 3.42857 10.3786V7.42857H14.1429V9.57143H15.5714V7.42857H20.5714V10.3786C19.96 10.5384 19.4188 10.8964 19.0326 11.3966C18.6463 11.8968 18.4368 12.5109 18.4368 13.1429C18.4368 13.7748 18.6463 14.389 19.0326 14.8891C19.4188 15.3893 19.96 15.7473 20.5714 15.9071V15.9071Z" fill="white" fill-opacity="0.3"/>
<path d="M14.1428 11H15.5714V15.2857H14.1428V11Z" fill="white" fill-opacity="0.3"/>
</svg>
