<svg width="25" height="25" viewBox="0 0 25 25" fill="none" xmlns="http://www.w3.org/2000/svg">
<path d="M21.5714 3H13C12.6212 3.00038 12.2581 3.15101 11.9903 3.41884C11.7224 3.68666 11.5718 4.04981 11.5714 4.42857V11.5714H4.42857C4.04981 11.5718 3.68666 11.7224 3.41884 11.9903C3.15101 12.2581 3.00038 12.6212 3 13V23H23V4.42857C22.9996 4.04981 22.849 3.68666 22.5812 3.41884C22.3133 3.15101 21.9502 3.00038 21.5714 3ZM8 21.5714V16.5714H10.8571V21.5714H8ZM21.5714 21.5714H12.2857V15.8571C12.2857 15.6677 12.2105 15.486 12.0765 15.3521C11.9426 15.2181 11.7609 15.1429 11.5714 15.1429H7.28571C7.09627 15.1429 6.91459 15.2181 6.78064 15.3521C6.64668 15.486 6.57143 15.6677 6.57143 15.8571V21.5714H4.42857V13H13V4.42857H21.5714V21.5714Z" fill="white" fill-opacity="0.3"/>
<path d="M14.4287 7.28571H15.8573V8.71428H14.4287V7.28571Z" fill="white" fill-opacity="0.3"/>
<path d="M18.7144 7.28571H20.1429V8.71428H18.7144V7.28571Z" fill="white" fill-opacity="0.3"/>
<path d="M14.4287 11.5714H15.8573V13H14.4287V11.5714Z" fill="white" fill-opacity="0.3"/>
<path d="M18.7144 11.5714H20.1429V13H18.7144V11.5714Z" fill="white" fill-opacity="0.3"/>
<path d="M14.4287 15.8571H15.8573V17.2857H14.4287V15.8571Z" fill="white" fill-opacity="0.3"/>
<path d="M18.7144 15.8571H20.1429V17.2857H18.7144V15.8571Z" fill="white" fill-opacity="0.3"/>
</svg>
