<svg width="19" height="14" viewBox="0 0 19 14" fill="none" xmlns="http://www.w3.org/2000/svg">
<path d="M17.7429 5.25714C17.9171 5.25714 18.0843 5.18791 18.2075 5.06467C18.3308 4.94143 18.4 4.77428 18.4 4.6V1.31429C18.4 0.965715 18.2615 0.631422 18.0151 0.384945C17.7686 0.138469 17.4343 0 17.0857 0H1.31429C0.965715 0 0.631422 0.138469 0.384945 0.384945C0.138469 0.631422 0 0.965715 0 1.31429V4.6C0 4.77428 0.0692345 4.94143 0.192473 5.06467C0.315711 5.18791 0.482858 5.25714 0.657143 5.25714C1.00571 5.25714 1.34001 5.39561 1.58648 5.64209C1.83296 5.88856 1.97143 6.22286 1.97143 6.57143C1.97143 6.92 1.83296 7.25429 1.58648 7.50077C1.34001 7.74724 1.00571 7.88571 0.657143 7.88571C0.482858 7.88571 0.315711 7.95495 0.192473 8.07819C0.0692345 8.20142 0 8.36857 0 8.54286V11.8286C0 12.1771 0.138469 12.5114 0.384945 12.7579C0.631422 13.0044 0.965715 13.1429 1.31429 13.1429H17.0857C17.4343 13.1429 17.7686 13.0044 18.0151 12.7579C18.2615 12.5114 18.4 12.1771 18.4 11.8286V8.54286C18.4 8.36857 18.3308 8.20142 18.2075 8.07819C18.0843 7.95495 17.9171 7.88571 17.7429 7.88571C17.3943 7.88571 17.06 7.74724 16.8135 7.50077C16.567 7.25429 16.4286 6.92 16.4286 6.57143C16.4286 6.22286 16.567 5.88856 16.8135 5.64209C17.06 5.39561 17.3943 5.25714 17.7429 5.25714V5.25714ZM17.0857 9.11457V11.8286H12.4857V9.85714H11.1714V11.8286H1.31429V9.11457C1.8768 8.96755 2.37469 8.63818 2.73005 8.17801C3.08541 7.71784 3.27817 7.15284 3.27817 6.57143C3.27817 5.99002 3.08541 5.42502 2.73005 4.96485C2.37469 4.50468 1.8768 4.17531 1.31429 4.02829V1.31429H11.1714V3.28571H12.4857V1.31429H17.0857V4.02829C16.5232 4.17531 16.0253 4.50468 15.6699 4.96485C15.3146 5.42502 15.1218 5.99002 15.1218 6.57143C15.1218 7.15284 15.3146 7.71784 15.6699 8.17801C16.0253 8.63818 16.5232 8.96755 17.0857 9.11457V9.11457Z" fill="white"/>
<path d="M11.1714 4.60001H12.4857V8.54286H11.1714V4.60001Z" fill="white"/>
</svg>
